<svg width="24" height="24" viewBox="0 0 24 24" fill="none" xmlns="http://www.w3.org/2000/svg">
<path fill-rule="evenodd" clip-rule="evenodd" d="M11 3.8C7.0235 3.8 3.79995 7.02355 3.79995 11C3.79995 14.9764 7.0235 18.2 11 18.2C12.9455 18.2 14.7109 17.4283 16.0066 16.1743C16.0299 16.1429 16.0558 16.1128 16.0843 16.0843C16.1127 16.0558 16.1428 16.0299 16.1743 16.0067C17.4283 14.7109 18.2 12.9456 18.2 11C18.2 7.02355 14.9764 3.8 11 3.8ZM17.7626 16.6312C19.0347 15.1052 19.7999 13.142 19.7999 11C19.7999 6.13989 15.8601 2.2 11 2.2C6.13985 2.2 2.19995 6.13989 2.19995 11C2.19995 15.8601 6.13985 19.8 11 19.8C13.1419 19.8 15.1052 19.0347 16.6312 17.7626L20.4343 21.5657C20.7467 21.8781 21.2532 21.8781 21.5656 21.5657C21.8781 21.2533 21.8781 20.7467 21.5656 20.4343L17.7626 16.6312Z" fill="#A1A1AA"/>
</svg>
