<!-- 
    material-icon.svg

    has svg files for icons. Sorted by pages where icon is used
 -->

<svg xmlns="http://www.w3.org/2000/svg">

<!-- General -->
        <!-- check-->
        <symbol id="icon-check" viewBox="0 -960 960 960">
            <path d="M382-240 154-468l57-57 171 171 367-367 57 57-424 424Z"/>
        </symbol>

        <!-- check circle -->
        <symbol id="icon-check-circle-fill" viewBox="0 -960 960 960">
            <path d="m424-296 282-282-56-56-226 226-114-114-56 56 170 170Zm56 216q-83 0-156-31.5T197-197q-54-54-85.5-127T80-480q0-83 31.5-156T197-763q54-54 127-85.5T480-880q83 0 156 31.5T763-763q54 54 85.5 127T880-480q0 83-31.5 156T763-197q-54 54-127 85.5T480-80Z"/>
        </symbol>

        <!-- error -->
        <symbol id="icon-error-fill" viewBox="0 -960 960 960">
            <path d="M480-280q17 0 28.5-11.5T520-320q0-17-11.5-28.5T480-360q-17 0-28.5 11.5T440-320q0 17 11.5 28.5T480-280Zm-40-160h80v-240h-80v240Zm40 360q-83 0-156-31.5T197-197q-54-54-85.5-127T80-480q0-83 31.5-156T197-763q54-54 127-85.5T480-880q83 0 156 31.5T763-763q54 54 85.5 127T880-480q0 83-31.5 156T763-197q-54 54-127 85.5T480-80Z"/>
        </symbol>

        <!-- error outline -->
        <symbol id="icon-error-outline" viewBox="0 -960 960 960">
            <path d="M480-280q17 0 28.5-11.5T520-320q0-17-11.5-28.5T480-360q-17 0-28.5 11.5T440-320q0 17 11.5 28.5T480-280Zm-40-160h80v-240h-80v240Zm40 360q-83 0-156-31.5T197-197q-54-54-85.5-127T80-480q0-83 31.5-156T197-763q54-54 127-85.5T480-880q83 0 156 31.5T763-763q54 54 85.5 127T880-480q0 83-31.5 156T763-197q-54 54-127 85.5T480-80Zm0-80q134 0 227-93t93-227q0-134-93-227t-227-93q-134 0-227 93t-93 227q0 134 93 227t227 93Zm0-320Z"/>
        </symbol>

        <!-- warning fill -->
        <symbol id="icon-warning-fill" viewBox="0 -960 960 960">
            <path d="m40-120 440-760 440 760H40Zm440-120q17 0 28.5-11.5T520-280q0-17-11.5-28.5T480-320q-17 0-28.5 11.5T440-280q0 17 11.5 28.5T480-240Zm-40-120h80v-200h-80v200Z"/>
        </symbol>

        <!-- warning triangle -->
        <symbol id="icon-warning-triangle" viewBox="0 -960 960 960">
            <path d="m40-120 440-760 440 760H40Zm138-80h604L480-720 178-200Zm302-40q17 0 28.5-11.5T520-280q0-17-11.5-28.5T480-320q-17 0-28.5 11.5T440-280q0 17 11.5 28.5T480-240Zm-40-120h80v-200h-80v200Zm40-100Z"/>
        </symbol>

        <!-- refresh -->
        <symbol id="icon-refresh" viewBox="0 -960 960 960">
            <path d="M480-160q-134 0-227-93t-93-227q0-134 93-227t227-93q69 0 132 28.5T720-690v-110h80v280H520v-80h168q-32-56-87.5-88T480-720q-100 0-170 70t-70 170q0 100 70 170t170 70q77 0 139-44t87-116h84q-28 106-114 173t-196 67Z"/>
        </symbol>

        <!-- left arrow -->
        <symbol id="icon-arrow-back-ios" viewBox="0 -960 960 960">
            <path d="M400-80 0-480l400-400 71 71-329 329 329 329-71 71Z"/>
        </symbol>
        
        <!-- right arrow -->
        <symbol id="icon-arrow-forward-ios" viewBox="0 -960 960 960">
            <path d="m321-80-71-71 329-329-329-329 71-71 400 400L321-80Z"/>
        </symbol>

        <!-- file -->
        <symbol id="icon-file" viewBox="0 -960 960 960">
            <path d="M320-240h320v-80H320v80Zm0-160h320v-80H320v80ZM240-80q-33 0-56.5-23.5T160-160v-640q0-33 23.5-56.5T240-880h320l240 240v480q0 33-23.5 56.5T720-80H240Zm280-520v-200H240v640h480v-440H520ZM240-800v200-200 640-640Z"/>
        </symbol>

        <!-- file copy -->
        <symbol id="icon-file-copy-fill" viewBox="0 -960 960 960">
            <path d="M160-40q-33 0-56.5-23.5T80-120v-560h80v560h440v80H160Zm160-160q-33 0-56.5-23.5T240-280v-560q0-33 23.5-56.5T320-920h280l240 240v400q0 33-23.5 56.5T760-200H320Zm240-440h200L560-840v200Z"/>
        </symbol>
        
        <!-- drowdown circle -->
        <symbol id="icon-expand-circle-down" viewBox="0 -960 960 960">
            <path d="m480-340 180-180-57-56-123 123-123-123-57 56 180 180Zm0 260q-83 0-156-31.5T197-197q-54-54-85.5-127T80-480q0-83 31.5-156T197-763q54-54 127-85.5T480-880q83 0 156 31.5T763-763q54 54 85.5 127T880-480q0 83-31.5 156T763-197q-54 54-127 85.5T480-80Zm0-80q134 0 227-93t93-227q0-134-93-227t-227-93q-134 0-227 93t-93 227q0 134 93 227t227 93Zm0-320Z"/>
        </symbol>
        <symbol id="icon-expand-circle-down-fill" viewBox="0 -960 960 960">
            <path d="m480-340 180-180-57-56-123 123-123-123-57 56 180 180Zm0 260q-83 0-156-31.5T197-197q-54-54-85.5-127T80-480q0-83 31.5-156T197-763q54-54 127-85.5T480-880q83 0 156 31.5T763-763q54 54 85.5 127T880-480q0 83-31.5 156T763-197q-54 54-127 85.5T480-80Z"/>
        </symbol>

        <!-- dropup circle -->
        <symbol id="icon-expand-circle-up" viewBox="0 -960 960 960">
            <path d="m357-384 123-123 123 123 57-56-180-180-180 180 57 56ZM480-80q-83 0-156-31.5T197-197q-54-54-85.5-127T80-480q0-83 31.5-156T197-763q54-54 127-85.5T480-880q83 0 156 31.5T763-763q54 54 85.5 127T880-480q0 83-31.5 156T763-197q-54 54-127 85.5T480-80Zm0-80q134 0 227-93t93-227q0-134-93-227t-227-93q-134 0-227 93t-93 227q0 134 93 227t227 93Zm0-320Z"/>
        </symbol>
        <symbol id="icon-expand-circle-up-fill" viewBox="0 -960 960 960">
            <path d="m480-507 123 123 57-56-180-180-180 180 57 56 123-123Zm0 427q-83 0-156-31.5T197-197q-54-54-85.5-127T80-480q0-83 31.5-156T197-763q54-54 127-85.5T480-880q83 0 156 31.5T763-763q54 54 85.5 127T880-480q0 83-31.5 156T763-197q-54 54-127 85.5T480-80Z"/>
        </symbol>

        <!-- undo -->
        <symbol id="icon-undo" viewBox="0 -960 960 960">
            <path d="M280-200v-80h284q63 0 109.5-40T720-420q0-60-46.5-100T564-560H312l104 104-56 56-200-200 200-200 56 56-104 104h252q97 0 166.5 63T800-420q0 94-69.5 157T564-200H280Z"/>
        </symbol>
        
        <!-- trashcan -->
        <symbol id="icon-delete" viewBox="0 -960 960 960">
            <path d="M280-120q-33 0-56.5-23.5T200-200v-520h-40v-80h200v-40h240v40h200v80h-40v520q0 33-23.5 56.5T680-120H280Zm400-600H280v520h400v-520ZM360-280h80v-360h-80v360Zm160 0h80v-360h-80v360ZM280-720v520-520Z"/>
        </symbol>
        <symbol id="icon-delete-fill" viewBox="0 -960 960 960">
            <path d="M280-120q-33 0-56.5-23.5T200-200v-520h-40v-80h200v-40h240v40h200v80h-40v520q0 33-23.5 56.5T680-120H280Zm80-160h80v-360h-80v360Zm160 0h80v-360h-80v360Z"/>
        </symbol>

        <!-- checkbox -->
        <symbol id="icon-indeterminate-check-box" viewBox="0 -960 960 960">
                <path d="M280-440h400v-80H280v80Zm-80 320q-33 0-56.5-23.5T120-200v-560q0-33 23.5-56.5T200-840h560q33 0 56.5 23.5T840-760v560q0 33-23.5 56.5T760-120H200Zm0-80h560v-560H200v560Zm0-560v560-560Z"/>
        </symbol>
        <symbol id="icon-check-box-outline-blank" viewBox="0 -960 960 960">
            <path d="M200-120q-33 0-56.5-23.5T120-200v-560q0-33 23.5-56.5T200-840h560q33 0 56.5 23.5T840-760v560q0 33-23.5 56.5T760-120H200Zm0-80h560v-560H200v560Z"/>
        </symbol>
        <symbol id="icon-check-box-fill" viewBox="0 -960 960 960">
            <path d="m424-312 282-282-56-56-226 226-114-114-56 56 170 170ZM200-120q-33 0-56.5-23.5T120-200v-560q0-33 23.5-56.5T200-840h560q33 0 56.5 23.5T840-760v560q0 33-23.5 56.5T760-120H200Z"/>
        </symbol>

        <!-- settings -->
        <symbol id="icon-settings" viewBox="0 -960 960 960">
                <path d="m370-80-16-128q-13-5-24.5-12T307-235l-119 50L78-375l103-78q-1-7-1-13.5v-27q0-6.5 1-13.5L78-585l110-190 119 50q11-8 23-15t24-12l16-128h220l16 128q13 5 24.5 12t22.5 15l119-50 110 190-103 78q1 7 1 13.5v27q0 6.5-2 13.5l103 78-110 190-118-50q-11 8-23 15t-24 12L590-80H370Zm70-80h79l14-106q31-8 57.5-23.5T639-327l99 41 39-68-86-65q5-14 7-29.5t2-31.5q0-16-2-31.5t-7-29.5l86-65-39-68-99 42q-22-23-48.5-38.5T533-694l-13-106h-79l-14 106q-31 8-57.5 23.5T321-633l-99-41-39 68 86 64q-5 15-7 30t-2 32q0 16 2 31t7 30l-86 65 39 68 99-42q22 23 48.5 38.5T427-266l13 106Zm42-180q58 0 99-41t41-99q0-58-41-99t-99-41q-59 0-99.5 41T342-480q0 58 40.5 99t99.5 41Zm-2-140Z"/>
        </symbol>
        <symbol id="icon-settings-fill" viewBox="0 -960 960 960">
                <path d="m370-80-16-128q-13-5-24.5-12T307-235l-119 50L78-375l103-78q-1-7-1-13.5v-27q0-6.5 1-13.5L78-585l110-190 119 50q11-8 23-15t24-12l16-128h220l16 128q13 5 24.5 12t22.5 15l119-50 110 190-103 78q1 7 1 13.5v27q0 6.5-2 13.5l103 78-110 190-118-50q-11 8-23 15t-24 12L590-80H370Zm112-260q58 0 99-41t41-99q0-58-41-99t-99-41q-59 0-99.5 41T342-480q0 58 40.5 99t99.5 41Z"/>
        </symbol>

        <!-- edit -->
        <symbol id="icon-edit" viewBox="0 -960 960 960">
                <path d="M200-200h57l391-391-57-57-391 391v57Zm-80 80v-170l528-527q12-11 26.5-17t30.5-6q16 0 31 6t26 18l55 56q12 11 17.5 26t5.5 30q0 16-5.5 30.5T817-647L290-120H120Zm640-584-56-56 56 56Zm-141 85-28-29 57 57-29-28Z"/>
        </symbol>

        <!-- password -->
        <symbol id="icon-password" viewBox="0 -960 960 960">
                <path d="M240-80q-33 0-56.5-23.5T160-160v-400q0-33 23.5-56.5T240-640h40v-80q0-83 58.5-141.5T480-920q83 0 141.5 58.5T680-720v80h40q33 0 56.5 23.5T800-560v400q0 33-23.5 56.5T720-80H240Zm0-80h480v-400H240v400Zm240-120q33 0 56.5-23.5T560-360q0-33-23.5-56.5T480-440q-33 0-56.5 23.5T400-360q0 33 23.5 56.5T480-280ZM360-640h240v-80q0-50-35-85t-85-35q-50 0-85 35t-35 85v80ZM240-160v-400 400Z"/>
        </symbol>

        <!-- attach-file -->
        <symbol id="icon-attach-file" viewBox="0 -960 960 960">
                <path d="M720-330q0 104-73 177T470-80q-104 0-177-73t-73-177v-370q0-75 52.5-127.5T400-880q75 0 127.5 52.5T580-700v350q0 46-32 78t-78 32q-46 0-78-32t-32-78v-370h80v370q0 13 8.5 21.5T470-320q13 0 21.5-8.5T500-350v-350q-1-42-29.5-71T400-800q-42 0-71 29t-29 71v370q-1 71 49 120.5T470-160q70 0 119-49.5T640-330v-390h80v390Z"/>
        </symbol>

        <!-- add -->
        <symbol id="icon-add" viewBox="0 -960 960 960">
                <path d="M440-440H200v-80h240v-240h80v240h240v80H520v240h-80v-240Z"/>
        </symbol>

        <!-- remove -->
        <symbol id="icon-remove" viewBox="0 -960 960 960">
                <path d="M200-440v-80h560v80H200Z"/>
        </symbol>

        <!-- reply -->
        <symbol id="icon-reply" viewBox="0 -960 960 960">
                <path d="m600-200-56-57 143-143H300q-75 0-127.5-52.5T120-580q0-75 52.5-127.5T300-760h20v80h-20q-42 0-71 29t-29 71q0 42 29 71t71 29h387L544-624l56-56 240 240-240 240Z"/>
        </symbol>

        <!-- feedback -->
        <symbol id="icon-feedback" viewBox="0 -960 960 960">
                <path d="M480-360q17 0 28.5-11.5T520-400q0-17-11.5-28.5T480-440q-17 0-28.5 11.5T440-400q0 17 11.5 28.5T480-360Zm-40-160h80v-240h-80v240ZM80-80v-720q0-33 23.5-56.5T160-880h640q33 0 56.5 23.5T880-800v480q0 33-23.5 56.5T800-240H240L80-80Zm126-240h594v-480H160v525l46-45Zm-46 0v-480 480Z"/>
        </symbol>

        <!-- print -->
        <symbol id="icon-print" viewBox="0 -960 960 960">
                <path d="M640-640v-120H320v120h-80v-200h480v200h-80Zm-480 80h640-640Zm560 100q17 0 28.5-11.5T760-500q0-17-11.5-28.5T720-540q-17 0-28.5 11.5T680-500q0 17 11.5 28.5T720-460Zm-80 260v-160H320v160h320Zm80 80H240v-160H80v-240q0-51 35-85.5t85-34.5h560q51 0 85.5 34.5T880-520v240H720v160Zm80-240v-160q0-17-11.5-28.5T760-560H200q-17 0-28.5 11.5T160-520v160h80v-80h480v80h80Z"/>
        </symbol>

        <!-- tag -->
        <symbol id="icon-tag" viewBox="0 -960 960 960">
                <path d="M160-160q-33 0-56.5-23.5T80-240v-480q0-33 23.5-56.5T160-800h440q19 0 36 8.5t28 23.5l216 288-216 288q-11 15-28 23.5t-36 8.5H160Zm0-80h440l180-240-180-240H160v480Zm220-240Z"/>
        </symbol>

        <!-- sort-up -->
        <symbol id="icon-sort-up" viewBox="0 -960 960 960">
            <path d="m280-400 200-200 200 200H280Z"/>
        </symbol>

        <!-- sort-down -->
        <symbol id="icon-sort-down" viewBox="0 -960 960 960">
            <path d="M480-360 280-560h400L480-360Z"/>
        </symbol>

<!-- Header -->
        <!-- bell -->
        <symbol id="icon-bell" viewBox="0 -960 960 960">
                <path d="M160-200v-80h80v-280q0-83 50-147.5T420-792v-28q0-25 17.5-42.5T480-880q25 0 42.5 17.5T540-820v28q80 20 130 84.5T720-560v280h80v80H160Zm320-300Zm0 420q-33 0-56.5-23.5T400-160h160q0 33-23.5 56.5T480-80ZM320-280h320v-280q0-66-47-113t-113-47q-66 0-113 47t-47 113v280Z"/>
        </symbol>

        <!-- person -->
        <symbol id="icon-person" viewBox="0 -960 960 960">
                <path d="M480-480q-66 0-113-47t-47-113q0-66 47-113t113-47q66 0 113 47t47 113q0 66-47 113t-113 47ZM160-160v-112q0-34 17.5-62.5T224-378q62-31 126-46.5T480-440q66 0 130 15.5T736-378q29 15 46.5 43.5T800-272v112H160Zm80-80h480v-32q0-11-5.5-20T700-306q-54-27-109-40.5T480-360q-56 0-111 13.5T260-306q-9 5-14.5 14t-5.5 20v32Zm240-320q33 0 56.5-23.5T560-640q0-33-23.5-56.5T480-720q-33 0-56.5 23.5T400-640q0 33 23.5 56.5T480-560Zm0-80Zm0 400Z"/>
        </symbol>

<!-- Nav -->
        <!-- menu -->
        <symbol id="icon-menu" viewBox="0 -960 960 960">
                <path d="M120-240v-80h720v80H120Zm0-200v-80h720v80H120Zm0-200v-80h720v80H120Z"/>
        </symbol>

        <!-- close -->
        <symbol id="icon-close" viewBox="0 -960 960 960">
                <path d="m256-200-56-56 224-224-224-224 56-56 224 224 224-224 56 56-224 224 224 224-56 56-224-224-224 224Z"/>
        </symbol>

        <!-- dashboard -->
        <symbol id="icon-dashboard" viewBox="0 -960 960 960">
                <path d="M520-600v-240h320v240H520ZM120-440v-400h320v400H120Zm400 320v-400h320v400H520Zm-400 0v-240h320v240H120Zm80-400h160v-240H200v240Zm400 320h160v-240H600v240Zm0-480h160v-80H600v80ZM200-200h160v-80H200v80Zm160-320Zm240-160Zm0 240ZM360-280Z"/>
        </symbol>

        <!-- admin -->
        <symbol id="icon-manage-accounts" viewBox="0 -960 960 960">
                <path d="M400-480q-66 0-113-47t-47-113q0-66 47-113t113-47q66 0 113 47t47 113q0 66-47 113t-113 47ZM80-160v-112q0-33 17-62t47-44q51-26 115-44t141-18h14q6 0 12 2-8 18-13.5 37.5T404-360h-4q-71 0-127.5 18T180-306q-9 5-14.5 14t-5.5 20v32h252q6 21 16 41.5t22 38.5H80Zm560 40-12-60q-12-5-22.5-10.5T584-204l-58 18-40-68 46-40q-2-14-2-26t2-26l-46-40 40-68 58 18q11-8 21.5-13.5T628-460l12-60h80l12 60q12 5 22.5 11t21.5 15l58-20 40 70-46 40q2 12 2 25t-2 25l46 40-40 68-58-18q-11 8-21.5 13.5T732-180l-12 60h-80Zm40-120q33 0 56.5-23.5T760-320q0-33-23.5-56.5T680-400q-33 0-56.5 23.5T600-320q0 33 23.5 56.5T680-240ZM400-560q33 0 56.5-23.5T480-640q0-33-23.5-56.5T400-720q-33 0-56.5 23.5T320-640q0 33 23.5 56.5T400-560Zm0-80Zm12 400Z"/>
        </symbol>
        <symbol id="icon-manage-accounts-fill" viewBox="0 -960 960 960">
                <path d="m640-120-12-60q-12-5-22.5-10.5T584-204l-58 18-40-68 46-40q-2-14-2-26t2-26l-46-40 40-68 58 18q11-8 21.5-13.5T628-460l12-60h80l12 60q12 5 22.5 11t21.5 15l58-20 40 70-46 40q2 12 2 25t-2 25l46 40-40 68-58-18q-11 8-21.5 13.5T732-180l-12 60h-80ZM80-160v-112q0-33 17-62t47-44q51-26 115-44t141-18h14q6 0 12 2-29 72-24 143t48 135H80Zm600-80q33 0 56.5-23.5T760-320q0-33-23.5-56.5T680-400q-33 0-56.5 23.5T600-320q0 33 23.5 56.5T680-240ZM400-480q-66 0-113-47t-47-113q0-66 47-113t113-47q66 0 113 47t47 113q0 66-47 113t-113 47Z"/>
        </symbol>

        <!-- component -->
        <symbol id="icon-component" viewBox="0 -960 960 960">
                <path d="M160-160q-33 0-56.5-23.5T80-240v-480q0-33 23.5-56.5T160-800h640q33 0 56.5 23.5T880-720v480q0 33-23.5 56.5T800-160H160Zm0-80h640v-400H160v400Z"/>
        </symbol>

        <!-- profile -->
        <symbol id="icon-account-circle-fill" viewBox="0 -960 960 960">
            <path d="M234-276q51-39 114-61.5T480-360q69 0 132 22.5T726-276q35-41 54.5-93T800-480q0-133-93.5-226.5T480-800q-133 0-226.5 93.5T160-480q0 59 19.5 111t54.5 93Zm246-164q-59 0-99.5-40.5T340-580q0-59 40.5-99.5T480-720q59 0 99.5 40.5T620-580q0 59-40.5 99.5T480-440Zm0 360q-83 0-156-31.5T197-197q-54-54-85.5-127T80-480q0-83 31.5-156T197-763q54-54 127-85.5T480-880q83 0 156 31.5T763-763q54 54 85.5 127T880-480q0 83-31.5 156T763-197q-54 54-127 85.5T480-80Z"/>
        </symbol>

        <!-- logout -->
        <symbol id="icon-logout" viewBox="0 -960 960 960">
            <path d="M200-120q-33 0-56.5-23.5T120-200v-560q0-33 23.5-56.5T200-840h280v80H200v560h280v80H200Zm440-160-55-58 102-102H360v-80h327L585-622l55-58 200 200-200 200Z"/>
        </symbol>

        <!-- business_center -->
        <symbol id="icon-business-center" viewBox="0 -960 960 960">
            <path d="M160-120q-33 0-56.5-23.5T80-200v-440q0-33 23.5-56.5T160-720h160v-80q0-33 23.5-56.5T400-880h160q33 0 56.5 23.5T640-800v80h160q33 0 56.5 23.5T880-640v440q0 33-23.5 56.5T800-120H160Zm240-600h160v-80H400v80Zm400 360H600v80H360v-80H160v160h640v-160Zm-360 0h80v-80h-80v80Zm-280-80h200v-80h240v80h200v-200H160v200Zm320 40Z"/>
        </symbol>

        <!-- view_list -->
        <symbol id="icon-view-list" viewBox="0 -960 960 960">
            <path d="M360-240h440v-107H360v107ZM160-613h120v-107H160v107Zm0 187h120v-107H160v107Zm0 186h120v-107H160v107Zm200-186h440v-107H360v107Zm0-187h440v-107H360v107ZM160-160q-33 0-56.5-23.5T80-240v-480q0-33 23.5-56.5T160-800h640q33 0 56.5 23.5T880-720v480q0 33-23.5 56.5T800-160H160Z"/>
        </symbol>

        <!-- group -->
        <symbol id="icon-group" viewBox="0 -960 960 960">
            <path d="M40-160v-112q0-34 17.5-62.5T104-378q62-31 126-46.5T360-440q66 0 130 15.5T616-378q29 15 46.5 43.5T680-272v112H40Zm720 0v-120q0-44-24.5-84.5T666-434q51 6 96 20.5t84 35.5q36 20 55 44.5t19 53.5v120H760ZM360-480q-66 0-113-47t-47-113q0-66 47-113t113-47q66 0 113 47t47 113q0 66-47 113t-113 47Zm400-160q0 66-47 113t-113 47q-11 0-28-2.5t-28-5.5q27-32 41.5-71t14.5-81q0-42-14.5-81T544-792q14-5 28-6.5t28-1.5q66 0 113 47t47 113ZM120-240h480v-32q0-11-5.5-20T580-306q-54-27-109-40.5T360-360q-56 0-111 13.5T140-306q-9 5-14.5 14t-5.5 20v32Zm240-320q33 0 56.5-23.5T440-640q0-33-23.5-56.5T360-720q-33 0-56.5 23.5T280-640q0 33 23.5 56.5T360-560Zm0 320Zm0-400Z"/>
        </symbol>

        <!-- groups -->
        <symbol id="icon-groups" viewBox="0 -960 960 960">
            <path d="M0-240v-63q0-43 44-70t116-27q13 0 25 .5t23 2.5q-14 21-21 44t-7 48v65H0Zm240 0v-65q0-32 17.5-58.5T307-410q32-20 76.5-30t96.5-10q53 0 97.5 10t76.5 30q32 20 49 46.5t17 58.5v65H240Zm540 0v-65q0-26-6.5-49T754-397q11-2 22.5-2.5t23.5-.5q72 0 116 26.5t44 70.5v63H780Zm-455-80h311q-10-20-55.5-35T480-370q-55 0-100.5 15T325-320ZM160-440q-33 0-56.5-23.5T80-520q0-34 23.5-57t56.5-23q34 0 57 23t23 57q0 33-23 56.5T160-440Zm640 0q-33 0-56.5-23.5T720-520q0-34 23.5-57t56.5-23q34 0 57 23t23 57q0 33-23 56.5T800-440Zm-320-40q-50 0-85-35t-35-85q0-51 35-85.5t85-34.5q51 0 85.5 34.5T600-600q0 50-34.5 85T480-480Zm0-80q17 0 28.5-11.5T520-600q0-17-11.5-28.5T480-640q-17 0-28.5 11.5T440-600q0 17 11.5 28.5T480-560Zm1 240Zm-1-280Z"/>
        </symbol>
        <symbol id="icon-groups-fill" viewBox="0 -960 960 960">
            <path d="M0-240v-63q0-43 44-70t116-27q13 0 25 .5t23 2.5q-14 21-21 44t-7 48v65H0Zm240 0v-65q0-32 17.5-58.5T307-410q32-20 76.5-30t96.5-10q53 0 97.5 10t76.5 30q32 20 49 46.5t17 58.5v65H240Zm540 0v-65q0-26-6.5-49T754-397q11-2 22.5-2.5t23.5-.5q72 0 116 26.5t44 70.5v63H780ZM160-440q-33 0-56.5-23.5T80-520q0-34 23.5-57t56.5-23q34 0 57 23t23 57q0 33-23 56.5T160-440Zm640 0q-33 0-56.5-23.5T720-520q0-34 23.5-57t56.5-23q34 0 57 23t23 57q0 33-23 56.5T800-440Zm-320-40q-50 0-85-35t-35-85q0-51 35-85.5t85-34.5q51 0 85.5 34.5T600-600q0 50-34.5 85T480-480Z"/>
        </symbol>

        <!-- home -->
        <symbol id="icon-home" viewBox="0 -960 960 960">
            <path d="M240-200h120v-240h240v240h120v-360L480-740 240-560v360Zm-80 80v-480l320-240 320 240v480H520v-240h-80v240H160Zm320-350Z"/>
        </symbol>
        <symbol id="icon-home-fill" viewBox="0 -960 960 960">
            <path d="M160-120v-480l320-240 320 240v480H560v-280H400v280H160Z"/>
        </symbol>

        <!-- stamp -->
        <symbol id="icon-stamp" viewBox="0 -960 960 960">
            <path d="M160-80v-240q0-33 23.5-56.5T240-400h480q33 0 56.5 23.5T800-320v240H160Zm80-160h480v-80H240v80Zm240-160L280-680q0-83 58.5-141.5T480-880q83 0 141.5 58.5T680-680L480-400Zm0-112 120-168q0-50-35-85t-85-35q-50 0-85 35t-35 85l120 168Zm0-144Z"/>
        </symbol>

        <!-- approval -->
        <symbol id="icon-approval" viewBox="0 -960 960 960">
            <path d="M517-518 347-688l57-56 113 113 227-226 56 56-283 283ZM280-220l278 76 238-74q-5-9-14.5-15.5T760-240H558q-27 0-43-2t-33-8l-93-31 22-78 81 27q17 5 40 8t68 4q0-11-6.5-21T578-354l-234-86h-64v220ZM40-80v-440h304q7 0 14 1.5t13 3.5l235 87q33 12 53.5 42t20.5 66h80q50 0 85 33t35 87v40L560-60l-280-78v58H40Zm80-80h80v-280h-80v280Z"/>
        </symbol>

		<!-- inbox -->
        <symbol id="icon-inbox" viewBox="0 -960 960 960">
            <path d="M200-120q-33 0-56.5-23.5T120-200v-560q0-33 23.5-56.5T200-840h560q33 0 56.5 23.5T840-760v560q0 33-23.5 56.5T760-120H200Zm0-80h560v-120H640q-30 38-71.5 59T480-240q-47 0-88.5-21T320-320H200v120Zm280-120q38 0 69-22t43-58h168v-360H200v360h168q12 36 43 58t69 22Zm0-80L320-560l56-58 64 64v-166h80v166l64-64 56 58-160 160ZM200-200h560-560Z"/>
        </symbol>

		<!-- outbox -->
        <symbol id="icon-outbox" viewBox="0 -960 960 960">
            <path d="M440-400v-166l-64 64-56-58 160-160 160 160-56 58-64-64v166h-80ZM200-120q-33 0-56.5-23.5T120-200v-560q0-33 23.5-56.5T200-840h560q33 0 56.5 23.5T840-760v560q0 33-23.5 56.5T760-120H200Zm0-80h560v-120H640q-30 38-71.5 59T480-240q-47 0-88.5-21T320-320H200v120Zm280-120q38 0 69-22t43-58h168v-360H200v360h168q12 36 43 58t69 22ZM200-200h560-560Z"/>
        </symbol>

		<!-- account tree -->
        <symbol id="icon-account-tree" viewBox="0 -960 960 960">
            <path d="M600-120v-120H440v-400h-80v120H80v-320h280v120h240v-120h280v320H600v-120h-80v320h80v-120h280v320H600ZM160-760v160-160Zm520 400v160-160Zm0-400v160-160Zm0 160h120v-160H680v160Zm0 400h120v-160H680v160ZM160-600h120v-160H160v160Z"/>
        </symbol>

<!-- Login page -->
        <!-- visibility -->
        <symbol id="icon-visibility-fill" viewBox="0 -960 960 960">
            <path d="M480-320q75 0 127.5-52.5T660-500q0-75-52.5-127.5T480-680q-75 0-127.5 52.5T300-500q0 75 52.5 127.5T480-320Zm0-72q-45 0-76.5-31.5T372-500q0-45 31.5-76.5T480-608q45 0 76.5 31.5T588-500q0 45-31.5 76.5T480-392Zm0 192q-146 0-266-81.5T40-500q54-137 174-218.5T480-800q146 0 266 81.5T920-500q-54 137-174 218.5T480-200Z"/>
        </symbol>

        <!-- visibility off -->
        <symbol id="icon-visibility-off-fill" viewBox="0 -960 960 960">
            <path d="M792-56 624-222q-35 11-70.5 16.5T480-200q-151 0-269-83.5T40-500q21-53 53-98.5t73-81.5L56-792l56-56 736 736-56 56ZM480-320q11 0 20.5-1t20.5-4L305-541q-3 11-4 20.5t-1 20.5q0 75 52.5 127.5T480-320Zm292 18L645-428q7-17 11-34.5t4-37.5q0-75-52.5-127.5T480-680q-20 0-37.5 4T408-664L306-766q41-17 84-25.5t90-8.5q151 0 269 83.5T920-500q-23 59-60.5 109.5T772-302ZM587-486 467-606q28-5 51.5 4.5T559-574q17 18 24.5 41.5T587-486Z"/>
        </symbol>

<!-- Admin_add_employee -->
        <!-- camera -->
        <symbol id="icon-camera" viewBox="0 -960 960 960">
            <path d="M480-260q75 0 127.5-52.5T660-440q0-75-52.5-127.5T480-620q-75 0-127.5 52.5T300-440q0 75 52.5 127.5T480-260Zm0-80q-42 0-71-29t-29-71q0-42 29-71t71-29q42 0 71 29t29 71q0 42-29 71t-71 29ZM160-120q-33 0-56.5-23.5T80-200v-480q0-33 23.5-56.5T160-760h126l74-80h240l74 80h126q33 0 56.5 23.5T880-680v480q0 33-23.5 56.5T800-120H160Zm0-80h640v-480H638l-73-80H395l-73 80H160v480Zm320-240Z"/>
        </symbol>

<!-- Approval_audit_list -->
		<!-- star -->
        <symbol id="icon-star" viewBox="0 -960 960 960">
            <path d="m305-704 112-145q12-16 28.5-23.5T480-880q18 0 34.5 7.5T543-849l112 145 170 57q26 8 41 29.5t15 47.5q0 12-3.5 24T866-523L756-367l4 164q1 35-23 59t-56 24q-2 0-22-3l-179-50-179 50q-5 2-11 2.5t-11 .5q-32 0-56-24t-23-59l4-165L95-523q-8-11-11.5-23T80-570q0-25 14.5-46.5T135-647l170-57Zm49 69-194 64 124 179-4 191 200-55 200 56-4-192 124-177-194-66-126-165-126 165Zm126 135Z"/>
        </symbol>
        
        <!-- star-fill -->
        <symbol id="icon-star-fill" viewBox="0 -960 960 960">
            <path d="m305-704 112-145q12-16 28.5-23.5T480-880q18 0 34.5 7.5T543-849l112 145 170 57q26 8 41 29.5t15 47.5q0 12-3.5 24T866-523L756-367l4 164q1 35-23 59t-56 24q-2 0-22-3l-179-50-179 50q-5 2-11 2.5t-11 .5q-32 0-56-24t-23-59l4-165L95-523q-8-11-11.5-23T80-570q0-25 14.5-46.5T135-647l170-57Z"/>
        </symbol>

<!-- List_datail_employee -->
        <!-- phone call -->
        <symbol id="icon-phone-call" viewBox="0 -960 960 960">
            <path d="M777-487q-5-121.33-89.29-205.55-84.29-84.23-205.71-89.23V-842q73 2 136.5 30.5T730-735q48 48 76.5 111.5T837-487h-60Zm-170 0q-5-50-40-84.5T482-611v-60q75 5 127.5 57T667-487h-60Zm188 367q-116 0-236.5-56T335-335Q232-438 176-558.5T120-795q0-19 13-32t32-13h140q14 0 24 10t14 25l27 126q2 14-.5 25.5T359-634L259-533q26 44 55 82t64 72q37 38 78 69.5t86 55.5l95-98q10-11 23-15t26-2l119 26q15 4 25 16t10 27v135q0 19-13 32t-32 13Z"/>
        </symbol>

<!-- Dashboard -->
        <!-- mail -->
        <symbol id="icon-mail" viewBox="0 -960 960 960">
            <path d="M160-160q-33 0-56.5-23.5T80-240v-480q0-33 23.5-56.5T160-800h640q33 0 56.5 23.5T880-720v480q0 33-23.5 56.5T800-160H160Zm320-280L160-640v400h640v-400L480-440Zm0-80 320-200H160l320 200ZM160-640v-80 480-400Z"/>
        </symbol>

        <!-- read-mail -->
        <symbol id="icon-read-mail" viewBox="0 -960 960 960">
            <path d="m480-920 362 216q18 11 28 30t10 40v434q0 33-23.5 56.5T800-120H160q-33 0-56.5-23.5T80-200v-434q0-21 10-40t28-30l362-216Zm0 466 312-186-312-186-312 186 312 186Zm0 94L160-552v352h640v-352L480-360Zm0 160h320-640 320Z"/>
        </symbol>

		<!-- share -->
        <symbol id="icon-share" viewBox="0 -960 960 960">
            <path d="M680-80q-50 0-85-35t-35-85q0-6 3-28L282-392q-16 15-37 23.5t-45 8.5q-50 0-85-35t-35-85q0-50 35-85t85-35q24 0 45 8.5t37 23.5l281-164q-2-7-2.5-13.5T560-760q0-50 35-85t85-35q50 0 85 35t35 85q0 50-35 85t-85 35q-24 0-45-8.5T598-672L317-508q2 7 2.5 13.5t.5 14.5q0 8-.5 14.5T317-452l281 164q16-15 37-23.5t45-8.5q50 0 85 35t35 85q0 50-35 85t-85 35Zm0-80q17 0 28.5-11.5T720-200q0-17-11.5-28.5T680-240q-17 0-28.5 11.5T640-200q0 17 11.5 28.5T680-160ZM200-440q17 0 28.5-11.5T240-480q0-17-11.5-28.5T200-520q-17 0-28.5 11.5T160-480q0 17 11.5 28.5T200-440Zm480-280q17 0 28.5-11.5T720-760q0-17-11.5-28.5T680-800q-17 0-28.5 11.5T640-760q0 17 11.5 28.5T680-720Zm0 520ZM200-480Zm480-280Z"/>
        </symbol>

		<!-- share -->
        <symbol id="icon-campaign" viewBox="0 -960 960 960">
            <path d="M720-440v-80h160v80H720Zm48 280-128-96 48-64 128 96-48 64Zm-80-480-48-64 128-96 48 64-128 96ZM200-200v-160h-40q-33 0-56.5-23.5T80-440v-80q0-33 23.5-56.5T160-600h160l200-120v480L320-360h-40v160h-80Zm240-182v-196l-98 58H160v80h182l98 58Zm120 36v-268q27 24 43.5 58.5T620-480q0 41-16.5 75.5T560-346ZM300-480Z"/>
        </symbol>

<!-- Mypage -->
        <!-- add circle -->
        <symbol id="icon-add-circle" viewBox="0 -960 960 960">
            <path d="M440-280h80v-160h160v-80H520v-160h-80v160H280v80h160v160Zm40 200q-83 0-156-31.5T197-197q-54-54-85.5-127T80-480q0-83 31.5-156T197-763q54-54 127-85.5T480-880q83 0 156 31.5T763-763q54 54 85.5 127T880-480q0 83-31.5 156T763-197q-54 54-127 85.5T480-80Zm0-80q134 0 227-93t93-227q0-134-93-227t-227-93q-134 0-227 93t-93 227q0 134 93 227t227 93Zm0-320Z"/>
        </symbol>
        <symbol id="icon-add-circle-fill" viewBox="0 -960 960 960">
            <path d="M440-280h80v-160h160v-80H520v-160h-80v160H280v80h160v160Zm40 200q-83 0-156-31.5T197-197q-54-54-85.5-127T80-480q0-83 31.5-156T197-763q54-54 127-85.5T480-880q83 0 156 31.5T763-763q54 54 85.5 127T880-480q0 83-31.5 156T763-197q-54 54-127 85.5T480-80Z"/>
        </symbol>

        <!-- clock -->
        <symbol id="icon-clock" viewBox="0 -960 960 960">
            <path d="m612-292 56-56-148-148v-184h-80v216l172 172ZM480-80q-83 0-156-31.5T197-197q-54-54-85.5-127T80-480q0-83 31.5-156T197-763q54-54 127-85.5T480-880q83 0 156 31.5T763-763q54 54 85.5 127T880-480q0 83-31.5 156T763-197q-54 54-127 85.5T480-80Zm0-400Zm0 320q133 0 226.5-93.5T800-480q0-133-93.5-226.5T480-800q-133 0-226.5 93.5T160-480q0 133 93.5 226.5T480-160Z"/>
        </symbol>

        <!-- clock :: work-history  -->
        <symbol id="icon-work-history" viewBox="0 -960 960 960">
            <path d="M160-200v-440 440-15 15Zm0 80q-33 0-56.5-23.5T80-200v-440q0-33 23.5-56.5T160-720h160v-80q0-33 23.5-56.5T400-880h160q33 0 56.5 23.5T640-800v80h160q33 0 56.5 23.5T880-640v171q-18-13-38-22.5T800-508v-132H160v440h283q3 21 9 41t15 39H160Zm240-600h160v-80H400v80ZM720-40q-83 0-141.5-58.5T520-240q0-83 58.5-141.5T720-440q83 0 141.5 58.5T920-240q0 83-58.5 141.5T720-40Zm20-208v-112h-40v128l86 86 28-28-74-74Z"/>
        </symbol>

<!-- Organigram -->
		<!-- folder -->
		<symbol id="icon-folder" viewBox="0 -960 960 960">
            <path d="M160-160q-33 0-56.5-23.5T80-240v-480q0-33 23.5-56.5T160-800h240l80 80h320q33 0 56.5 23.5T880-640v400q0 33-23.5 56.5T800-160H160Zm0-80h640v-400H447l-80-80H160v480Zm0 0v-480 480Z"/>
        </symbol>

<!-- Wysiwyg -->
        <!-- bold -->
        <symbol id="icon-bold" viewBox="0 -960 960 960">
            <path d="M272-200v-560h221q65 0 120 40t55 111q0 51-23 78.5T602-491q25 11 55.5 41t30.5 90q0 89-65 124.5T501-200H272Zm121-112h104q48 0 58.5-24.5T566-372q0-11-10.5-35.5T494-432H393v120Zm0-228h93q33 0 48-17t15-38q0-24-17-39t-44-15h-95v109Z"/>
        </symbol>

        <!-- italic -->
        <symbol id="icon-italic" viewBox="0 -960 960 960">
            <path d="M200-200v-100h160l120-360H320v-100h400v100H580L460-300h140v100H200Z"/>
        </symbol>

        <!-- underline -->
        <symbol id="icon-underline" viewBox="0 -960 960 960">
            <path d="M200-120v-80h560v80H200Zm280-160q-101 0-157-63t-56-167v-330h103v336q0 56 28 91t82 35q54 0 82-35t28-91v-336h103v330q0 104-56 167t-157 63Z"/>
        </symbol>

        <!-- strike -->
        <symbol id="icon-strike" viewBox="0 -960 960 960">
            <path d="M80-400v-80h800v80H80Zm340-160v-120H200v-120h560v120H540v120H420Zm0 400v-160h120v160H420Z"/>
        </symbol>

        <!-- h1 -->
        <symbol id="icon-h1" viewBox="0 -960 960 960">
            <path d="M200-280v-400h80v160h160v-160h80v400h-80v-160H280v160h-80Zm480 0v-320h-80v-80h160v400h-80Z"/>
        </symbol>

        <!-- h2 -->
        <symbol id="icon-h2" viewBox="0 -960 960 960">
            <path d="M120-280v-400h80v160h160v-160h80v400h-80v-160H200v160h-80Zm400 0v-160q0-33 23.5-56.5T600-520h160v-80H520v-80h240q33 0 56.5 23.5T840-600v80q0 33-23.5 56.5T760-440H600v80h240v80H520Z"/>
        </symbol>

        <!-- h3 -->
        <symbol id="icon-h3" viewBox="0 -960 960 960">
            <path d="M120-280v-400h80v160h160v-160h80v400h-80v-160H200v160h-80Zm400 0v-80h240v-80H600v-80h160v-80H520v-80h240q33 0 56.5 23.5T840-600v240q0 33-23.5 56.5T760-280H520Z"/>
        </symbol>

        <!-- h4 -->
        <symbol id="icon-h4" viewBox="0 -960 960 960">
            <path d="M120-280v-400h80v160h160v-160h80v400h-80v-160H200v160h-80Zm600 0v-120H520v-280h80v200h120v-200h80v200h80v80h-80v120h-80Z"/>
        </symbol>

        <!-- h5 -->
        <symbol id="icon-h5" viewBox="0 -960 960 960">
            <path d="M120-280v-400h80v160h160v-160h80v400h-80v-160H200v160h-80Zm400 0v-80h240v-80H520v-240h320v80H600v80h160q33 0 56.5 23.5T840-440v80q0 33-23.5 56.5T760-280H520Z"/>
        </symbol>

        <!-- h6 -->
        <symbol id="icon-h6" viewBox="0 -960 960 960">
            <path d="M120-280v-400h80v160h160v-160h80v400h-80v-160H200v160h-80Zm480 0q-33 0-56.5-23.5T520-360v-240q0-33 23.5-56.5T600-680h240v80H600v80h160q33 0 56.5 23.5T840-440v80q0 33-23.5 56.5T760-280H600Zm0-160v80h160v-80H600Z"/>
        </symbol>

        <!-- divider -->
        <symbol id="icon-divider" viewBox="0 -960 960 960">
            <path d="M160-440v-80h640v80H160Z"/>
        </symbol>

        <!-- quote -->
        <symbol id="icon-quote" viewBox="0 -960 960 960">
            <path d="m228-240 92-160q-66 0-113-47t-47-113q0-66 47-113t113-47q66 0 113 47t47 113q0 23-5.5 42.5T458-480L320-240h-92Zm360 0 92-160q-66 0-113-47t-47-113q0-66 47-113t113-47q66 0 113 47t47 113q0 23-5.5 42.5T818-480L680-240h-92ZM320-500q25 0 42.5-17.5T380-560q0-25-17.5-42.5T320-620q-25 0-42.5 17.5T260-560q0 25 17.5 42.5T320-500Zm360 0q25 0 42.5-17.5T740-560q0-25-17.5-42.5T680-620q-25 0-42.5 17.5T620-560q0 25 17.5 42.5T680-500Zm0-60Zm-360 0Z"/>
        </symbol>

        <!-- list-bullet -->
        <symbol id="icon-list-bullet" viewBox="0 -960 960 960">
            <path d="M360-200v-80h480v80H360Zm0-240v-80h480v80H360Zm0-240v-80h480v80H360ZM200-160q-33 0-56.5-23.5T120-240q0-33 23.5-56.5T200-320q33 0 56.5 23.5T280-240q0 33-23.5 56.5T200-160Zm0-240q-33 0-56.5-23.5T120-480q0-33 23.5-56.5T200-560q33 0 56.5 23.5T280-480q0 33-23.5 56.5T200-400Zm0-240q-33 0-56.5-23.5T120-720q0-33 23.5-56.5T200-800q33 0 56.5 23.5T280-720q0 33-23.5 56.5T200-640Z"/>
        </symbol>

        <!-- list-number -->
        <symbol id="icon-list-number" viewBox="0 -960 960 960">
            <path d="M120-80v-60h100v-30h-60v-60h60v-30H120v-60h120q17 0 28.5 11.5T280-280v40q0 17-11.5 28.5T240-200q17 0 28.5 11.5T280-160v40q0 17-11.5 28.5T240-80H120Zm0-280v-110q0-17 11.5-28.5T160-510h60v-30H120v-60h120q17 0 28.5 11.5T280-560v70q0 17-11.5 28.5T240-450h-60v30h100v60H120Zm60-280v-180h-60v-60h120v240h-60Zm180 440v-80h480v80H360Zm0-240v-80h480v80H360Zm0-240v-80h480v80H360Z"/>
        </symbol>

        <!-- align-left -->
        <symbol id="icon-align-left" viewBox="0 -960 960 960">
            <path d="M120-120v-80h720v80H120Zm0-160v-80h480v80H120Zm0-160v-80h720v80H120Zm0-160v-80h480v80H120Zm0-160v-80h720v80H120Z"/>
        </symbol>

        <!-- align-center -->
        <symbol id="icon-align-center" viewBox="0 -960 960 960">
            <path d="M120-120v-80h720v80H120Zm160-160v-80h400v80H280ZM120-440v-80h720v80H120Zm160-160v-80h400v80H280ZM120-760v-80h720v80H120Z"/>
        </symbol>

        <!-- align-right -->
        <symbol id="icon-align-right" viewBox="0 -960 960 960">
            <path d="M120-760v-80h720v80H120Zm240 160v-80h480v80H360ZM120-440v-80h720v80H120Zm240 160v-80h480v80H360ZM120-120v-80h720v80H120Z"/>
        </symbol>

        <!-- image -->
        <symbol id="icon-image" viewBox="0 -960 960 960">
            <path d="M200-120q-33 0-56.5-23.5T120-200v-560q0-33 23.5-56.5T200-840h560q33 0 56.5 23.5T840-760v560q0 33-23.5 56.5T760-120H200Zm0-80h560v-560H200v560Zm40-80h480L570-480 450-320l-90-120-120 160Zm-40 80v-560 560Zm140-360q25 0 42.5-17.5T400-620q0-25-17.5-42.5T340-680q-25 0-42.5 17.5T280-620q0 25 17.5 42.5T340-560Z"/>
        </symbol>

        <!-- table -->
        <symbol id="icon-table" viewBox="0 -960 960 960">
            <path d="M200-120q-33 0-56.5-23.5T120-200v-560q0-33 23.5-56.5T200-840h560q33 0 56.5 23.5T840-760v560q0 33-23.5 56.5T760-120H200Zm240-240H200v160h240v-160Zm80 0v160h240v-160H520Zm-80-80v-160H200v160h240Zm80 0h240v-160H520v160ZM200-680h560v-80H200v80Z"/>
        </symbol>
</svg>